<mxfile host="app.diagrams.net" agent="Mozilla/5.0 (Windows NT 10.0; Win64; x64) AppleWebKit/537.36 (KHTML, like Gecko) Chrome/133.0.0.0 Safari/537.36" version="26.0.12">
  <diagram name="Página-1" id="qlRQV2MQdT9s-rdoZJUx">
    <mxGraphModel dx="1750" dy="928" grid="1" gridSize="10" guides="1" tooltips="1" connect="1" arrows="1" fold="1" page="1" pageScale="1" pageWidth="1169" pageHeight="827" math="0" shadow="0">
      <root>
        <mxCell id="0" />
        <mxCell id="1" parent="0" />
        <mxCell id="wWT4ilZx3VzIWegS0zs--90" value="" style="line;strokeWidth=4;direction=south;html=1;perimeter=backbonePerimeter;points=[];outlineConnect=0;fontFamily=Helvetica;fontSize=11;fontColor=default;labelBackgroundColor=default;" parent="1" vertex="1">
          <mxGeometry x="406" y="10" width="10" height="808" as="geometry" />
        </mxCell>
        <mxCell id="wWT4ilZx3VzIWegS0zs--91" value="&lt;font style=&quot;font-size: 15px;&quot;&gt;Profesor&lt;/font&gt;" style="rounded=0;whiteSpace=wrap;html=1;fontFamily=Helvetica;fontSize=11;fontColor=default;labelBackgroundColor=default;" parent="1" vertex="1">
          <mxGeometry x="136" y="8" width="120" height="60" as="geometry" />
        </mxCell>
        <mxCell id="wWT4ilZx3VzIWegS0zs--92" value="&lt;font style=&quot;font-size: 15px;&quot;&gt;Sistema&lt;/font&gt;" style="rounded=0;whiteSpace=wrap;html=1;fontFamily=Helvetica;fontSize=11;fontColor=default;labelBackgroundColor=default;" parent="1" vertex="1">
          <mxGeometry x="550" y="8" width="120" height="60" as="geometry" />
        </mxCell>
        <mxCell id="wWT4ilZx3VzIWegS0zs--93" style="edgeStyle=none;shape=connector;curved=0;rounded=0;orthogonalLoop=1;jettySize=auto;html=1;entryX=0.5;entryY=0;entryDx=0;entryDy=0;strokeColor=default;align=center;verticalAlign=middle;fontFamily=Helvetica;fontSize=11;fontColor=default;labelBackgroundColor=default;endArrow=classic;endFill=1;" parent="1" source="wWT4ilZx3VzIWegS0zs--94" target="wWT4ilZx3VzIWegS0zs--96" edge="1">
          <mxGeometry relative="1" as="geometry" />
        </mxCell>
        <mxCell id="wWT4ilZx3VzIWegS0zs--94" value="" style="ellipse;html=1;shape=endState;fillColor=#000000;strokeColor=none;" parent="1" vertex="1">
          <mxGeometry x="185" y="108" width="30" height="30" as="geometry" />
        </mxCell>
        <mxCell id="wWT4ilZx3VzIWegS0zs--95" style="edgeStyle=none;shape=connector;curved=0;rounded=0;orthogonalLoop=1;jettySize=auto;html=1;strokeColor=default;align=center;verticalAlign=middle;fontFamily=Helvetica;fontSize=11;fontColor=default;labelBackgroundColor=default;endArrow=classic;endFill=1;entryX=0;entryY=0.5;entryDx=0;entryDy=0;" parent="1" source="wWT4ilZx3VzIWegS0zs--96" target="wWT4ilZx3VzIWegS0zs--98" edge="1">
          <mxGeometry relative="1" as="geometry">
            <mxPoint x="611" y="208" as="targetPoint" />
          </mxGeometry>
        </mxCell>
        <mxCell id="wWT4ilZx3VzIWegS0zs--96" value="Iniciar sesion" style="rounded=1;arcSize=10;whiteSpace=wrap;html=1;align=center;fontFamily=Helvetica;fontSize=11;fontColor=default;labelBackgroundColor=default;" parent="1" vertex="1">
          <mxGeometry x="150" y="188" width="100" height="40" as="geometry" />
        </mxCell>
        <mxCell id="7pXeF4EEX6OUsHhG6Bgy-25" style="edgeStyle=orthogonalEdgeStyle;rounded=0;orthogonalLoop=1;jettySize=auto;html=1;entryX=0;entryY=0.5;entryDx=0;entryDy=0;" edge="1" parent="1" source="wWT4ilZx3VzIWegS0zs--98" target="7pXeF4EEX6OUsHhG6Bgy-24">
          <mxGeometry relative="1" as="geometry" />
        </mxCell>
        <mxCell id="wWT4ilZx3VzIWegS0zs--98" value="comprobar usuario iniciado" style="rounded=1;arcSize=10;whiteSpace=wrap;html=1;align=center;fontFamily=Helvetica;fontSize=11;fontColor=default;labelBackgroundColor=default;" parent="1" vertex="1">
          <mxGeometry x="570" y="188" width="100" height="40" as="geometry" />
        </mxCell>
        <mxCell id="wWT4ilZx3VzIWegS0zs--99" style="edgeStyle=orthogonalEdgeStyle;shape=connector;rounded=0;orthogonalLoop=1;jettySize=auto;html=1;strokeColor=default;align=center;verticalAlign=middle;fontFamily=Helvetica;fontSize=11;fontColor=default;labelBackgroundColor=default;endArrow=classic;endFill=1;exitX=0.017;exitY=0.556;exitDx=0;exitDy=0;exitPerimeter=0;" parent="1" source="wWT4ilZx3VzIWegS0zs--101" edge="1">
          <mxGeometry relative="1" as="geometry">
            <mxPoint x="180" y="260" as="targetPoint" />
            <mxPoint x="970" y="262" as="sourcePoint" />
            <Array as="points">
              <mxPoint x="975" y="262" />
              <mxPoint x="605" y="262" />
              <mxPoint x="605" y="240" />
              <mxPoint x="180" y="240" />
            </Array>
          </mxGeometry>
        </mxCell>
        <mxCell id="7pXeF4EEX6OUsHhG6Bgy-41" style="edgeStyle=orthogonalEdgeStyle;rounded=0;orthogonalLoop=1;jettySize=auto;html=1;entryX=0.75;entryY=0;entryDx=0;entryDy=0;exitX=0.992;exitY=0.58;exitDx=0;exitDy=0;exitPerimeter=0;" edge="1" parent="1" source="wWT4ilZx3VzIWegS0zs--101" target="wWT4ilZx3VzIWegS0zs--96">
          <mxGeometry relative="1" as="geometry">
            <Array as="points">
              <mxPoint x="1024" y="262" />
              <mxPoint x="1130" y="262" />
              <mxPoint x="1130" y="123" />
              <mxPoint x="225" y="123" />
            </Array>
          </mxGeometry>
        </mxCell>
        <mxCell id="wWT4ilZx3VzIWegS0zs--101" value="" style="html=1;whiteSpace=wrap;aspect=fixed;shape=isoRectangle;fontFamily=Helvetica;fontSize=11;fontColor=default;labelBackgroundColor=default;" parent="1" vertex="1">
          <mxGeometry x="974" y="247" width="50" height="30" as="geometry" />
        </mxCell>
        <mxCell id="wWT4ilZx3VzIWegS0zs--103" style="edgeStyle=none;shape=connector;curved=0;rounded=0;orthogonalLoop=1;jettySize=auto;html=1;entryX=0;entryY=0;entryDx=0;entryDy=0;strokeColor=default;align=center;verticalAlign=middle;fontFamily=Helvetica;fontSize=11;fontColor=default;labelBackgroundColor=default;endArrow=classic;endFill=1;" parent="1" source="wWT4ilZx3VzIWegS0zs--105" target="wWT4ilZx3VzIWegS0zs--109" edge="1">
          <mxGeometry relative="1" as="geometry" />
        </mxCell>
        <mxCell id="wWT4ilZx3VzIWegS0zs--104" style="edgeStyle=none;shape=connector;curved=0;rounded=0;orthogonalLoop=1;jettySize=auto;html=1;entryX=0.25;entryY=0;entryDx=0;entryDy=0;strokeColor=default;align=center;verticalAlign=middle;fontFamily=Helvetica;fontSize=11;fontColor=default;labelBackgroundColor=default;endArrow=classic;endFill=1;" parent="1" source="wWT4ilZx3VzIWegS0zs--105" target="wWT4ilZx3VzIWegS0zs--107" edge="1">
          <mxGeometry relative="1" as="geometry" />
        </mxCell>
        <mxCell id="wWT4ilZx3VzIWegS0zs--105" value="" style="line;strokeWidth=4;direction=south;html=1;perimeter=backbonePerimeter;points=[];outlineConnect=0;fontFamily=Helvetica;fontSize=11;fontColor=default;labelBackgroundColor=default;rotation=-90;" parent="1" vertex="1">
          <mxGeometry x="181" y="224" width="10" height="100" as="geometry" />
        </mxCell>
        <mxCell id="7pXeF4EEX6OUsHhG6Bgy-22" style="edgeStyle=orthogonalEdgeStyle;rounded=0;orthogonalLoop=1;jettySize=auto;html=1;entryX=0;entryY=0.5;entryDx=0;entryDy=0;" edge="1" parent="1" source="wWT4ilZx3VzIWegS0zs--107" target="7pXeF4EEX6OUsHhG6Bgy-21">
          <mxGeometry relative="1" as="geometry" />
        </mxCell>
        <mxCell id="wWT4ilZx3VzIWegS0zs--107" value="crear reserva" style="rounded=1;arcSize=10;whiteSpace=wrap;html=1;align=center;fontFamily=Helvetica;fontSize=11;fontColor=default;labelBackgroundColor=default;" parent="1" vertex="1">
          <mxGeometry x="185" y="332" width="100" height="40" as="geometry" />
        </mxCell>
        <mxCell id="wWT4ilZx3VzIWegS0zs--108" style="edgeStyle=none;shape=connector;curved=0;rounded=0;orthogonalLoop=1;jettySize=auto;html=1;entryX=0;entryY=0.5;entryDx=0;entryDy=0;strokeColor=default;align=center;verticalAlign=middle;fontFamily=Helvetica;fontSize=11;fontColor=default;labelBackgroundColor=default;endArrow=classic;endFill=1;" parent="1" source="wWT4ilZx3VzIWegS0zs--109" target="wWT4ilZx3VzIWegS0zs--114" edge="1">
          <mxGeometry relative="1" as="geometry" />
        </mxCell>
        <mxCell id="wWT4ilZx3VzIWegS0zs--109" value="actualizar reserva" style="rounded=1;arcSize=10;whiteSpace=wrap;html=1;align=center;fontFamily=Helvetica;fontSize=11;fontColor=default;labelBackgroundColor=default;" parent="1" vertex="1">
          <mxGeometry x="156" y="408" width="100" height="40" as="geometry" />
        </mxCell>
        <mxCell id="wWT4ilZx3VzIWegS0zs--110" value="[existe usuario]" style="text;html=1;align=center;verticalAlign=middle;resizable=0;points=[];autosize=1;strokeColor=none;fillColor=none;fontFamily=Helvetica;fontSize=11;fontColor=default;labelBackgroundColor=default;" parent="1" vertex="1">
          <mxGeometry x="854" y="237" width="100" height="30" as="geometry" />
        </mxCell>
        <mxCell id="wWT4ilZx3VzIWegS0zs--111" value="[no existe usuario]" style="text;html=1;align=center;verticalAlign=middle;resizable=0;points=[];autosize=1;strokeColor=none;fillColor=none;fontFamily=Helvetica;fontSize=11;fontColor=default;labelBackgroundColor=default;" parent="1" vertex="1">
          <mxGeometry x="1015" y="229" width="110" height="30" as="geometry" />
        </mxCell>
        <mxCell id="wWT4ilZx3VzIWegS0zs--113" value="añadir reserva" style="rounded=1;arcSize=10;whiteSpace=wrap;html=1;align=center;fontFamily=Helvetica;fontSize=11;fontColor=default;labelBackgroundColor=default;" parent="1" vertex="1">
          <mxGeometry x="940" y="332" width="100" height="40" as="geometry" />
        </mxCell>
        <mxCell id="7pXeF4EEX6OUsHhG6Bgy-29" style="edgeStyle=orthogonalEdgeStyle;rounded=0;orthogonalLoop=1;jettySize=auto;html=1;entryX=0;entryY=0.5;entryDx=0;entryDy=0;" edge="1" parent="1" source="wWT4ilZx3VzIWegS0zs--114" target="7pXeF4EEX6OUsHhG6Bgy-28">
          <mxGeometry relative="1" as="geometry" />
        </mxCell>
        <mxCell id="wWT4ilZx3VzIWegS0zs--114" value="comprobar reserva&lt;div&gt;a actualizar&lt;/div&gt;" style="rounded=1;arcSize=10;whiteSpace=wrap;html=1;align=center;fontFamily=Helvetica;fontSize=11;fontColor=default;labelBackgroundColor=default;" parent="1" vertex="1">
          <mxGeometry x="570" y="408" width="100" height="40" as="geometry" />
        </mxCell>
        <mxCell id="7pXeF4EEX6OUsHhG6Bgy-33" style="edgeStyle=orthogonalEdgeStyle;rounded=0;orthogonalLoop=1;jettySize=auto;html=1;exitX=0.028;exitY=0.553;exitDx=0;exitDy=0;exitPerimeter=0;" edge="1" parent="1" source="wWT4ilZx3VzIWegS0zs--118">
          <mxGeometry relative="1" as="geometry">
            <mxPoint x="140" y="260" as="targetPoint" />
            <Array as="points">
              <mxPoint x="110" y="495" />
              <mxPoint x="110" y="240" />
              <mxPoint x="140" y="240" />
            </Array>
          </mxGeometry>
        </mxCell>
        <mxCell id="7pXeF4EEX6OUsHhG6Bgy-55" style="edgeStyle=orthogonalEdgeStyle;rounded=0;orthogonalLoop=1;jettySize=auto;html=1;" edge="1" parent="1" source="wWT4ilZx3VzIWegS0zs--118">
          <mxGeometry relative="1" as="geometry">
            <mxPoint x="180" y="520" as="targetPoint" />
            <Array as="points">
              <mxPoint x="990" y="510" />
            </Array>
          </mxGeometry>
        </mxCell>
        <mxCell id="wWT4ilZx3VzIWegS0zs--118" value="" style="html=1;whiteSpace=wrap;aspect=fixed;shape=isoRectangle;fontFamily=Helvetica;fontSize=11;fontColor=default;labelBackgroundColor=default;" parent="1" vertex="1">
          <mxGeometry x="965" y="478" width="50" height="30" as="geometry" />
        </mxCell>
        <mxCell id="wWT4ilZx3VzIWegS0zs--119" value="[no existe reserva]" style="text;html=1;align=center;verticalAlign=middle;resizable=0;points=[];autosize=1;strokeColor=none;fillColor=none;fontFamily=Helvetica;fontSize=11;fontColor=default;labelBackgroundColor=default;" parent="1" vertex="1">
          <mxGeometry x="860" y="460" width="110" height="30" as="geometry" />
        </mxCell>
        <mxCell id="wWT4ilZx3VzIWegS0zs--120" style="edgeStyle=none;shape=connector;curved=0;rounded=0;orthogonalLoop=1;jettySize=auto;html=1;entryX=0.75;entryY=0;entryDx=0;entryDy=0;strokeColor=default;align=center;verticalAlign=middle;fontFamily=Helvetica;fontSize=11;fontColor=default;labelBackgroundColor=default;endArrow=classic;endFill=1;" parent="1" source="wWT4ilZx3VzIWegS0zs--122" target="wWT4ilZx3VzIWegS0zs--126" edge="1">
          <mxGeometry relative="1" as="geometry" />
        </mxCell>
        <mxCell id="wWT4ilZx3VzIWegS0zs--121" style="edgeStyle=none;shape=connector;curved=0;rounded=0;orthogonalLoop=1;jettySize=auto;html=1;entryX=0.25;entryY=0;entryDx=0;entryDy=0;strokeColor=default;align=center;verticalAlign=middle;fontFamily=Helvetica;fontSize=11;fontColor=default;labelBackgroundColor=default;endArrow=classic;endFill=1;" parent="1" source="wWT4ilZx3VzIWegS0zs--122" target="wWT4ilZx3VzIWegS0zs--128" edge="1">
          <mxGeometry relative="1" as="geometry" />
        </mxCell>
        <mxCell id="wWT4ilZx3VzIWegS0zs--122" value="" style="line;strokeWidth=4;direction=south;html=1;perimeter=backbonePerimeter;points=[];outlineConnect=0;fontFamily=Helvetica;fontSize=11;fontColor=default;labelBackgroundColor=default;rotation=-90;" parent="1" vertex="1">
          <mxGeometry x="170" y="478" width="10" height="100" as="geometry" />
        </mxCell>
        <mxCell id="wWT4ilZx3VzIWegS0zs--124" value="[existe reserva]" style="text;html=1;align=center;verticalAlign=middle;resizable=0;points=[];autosize=1;strokeColor=none;fillColor=none;fontFamily=Helvetica;fontSize=11;fontColor=default;labelBackgroundColor=default;" parent="1" vertex="1">
          <mxGeometry x="880" y="513" width="100" height="30" as="geometry" />
        </mxCell>
        <mxCell id="wWT4ilZx3VzIWegS0zs--125" style="edgeStyle=none;shape=connector;curved=0;rounded=0;orthogonalLoop=1;jettySize=auto;html=1;strokeColor=default;align=center;verticalAlign=middle;fontFamily=Helvetica;fontSize=11;fontColor=default;labelBackgroundColor=default;endArrow=classic;endFill=1;" parent="1" source="wWT4ilZx3VzIWegS0zs--126" target="7pXeF4EEX6OUsHhG6Bgy-5" edge="1">
          <mxGeometry relative="1" as="geometry">
            <mxPoint x="120" y="633" as="targetPoint" />
          </mxGeometry>
        </mxCell>
        <mxCell id="wWT4ilZx3VzIWegS0zs--126" value="modificar reserva" style="rounded=1;arcSize=10;whiteSpace=wrap;html=1;align=center;fontFamily=Helvetica;fontSize=11;fontColor=default;labelBackgroundColor=default;" parent="1" vertex="1">
          <mxGeometry x="70" y="563" width="100" height="40" as="geometry" />
        </mxCell>
        <mxCell id="wWT4ilZx3VzIWegS0zs--127" style="edgeStyle=none;shape=connector;curved=0;rounded=0;orthogonalLoop=1;jettySize=auto;html=1;strokeColor=default;align=center;verticalAlign=middle;fontFamily=Helvetica;fontSize=11;fontColor=default;labelBackgroundColor=default;endArrow=classic;endFill=1;" parent="1" source="wWT4ilZx3VzIWegS0zs--128" target="7pXeF4EEX6OUsHhG6Bgy-5" edge="1">
          <mxGeometry relative="1" as="geometry">
            <mxPoint x="241" y="633" as="targetPoint" />
          </mxGeometry>
        </mxCell>
        <mxCell id="wWT4ilZx3VzIWegS0zs--128" value="borrar reserva" style="rounded=1;arcSize=10;whiteSpace=wrap;html=1;align=center;fontFamily=Helvetica;fontSize=11;fontColor=default;labelBackgroundColor=default;" parent="1" vertex="1">
          <mxGeometry x="191" y="563" width="100" height="40" as="geometry" />
        </mxCell>
        <mxCell id="7pXeF4EEX6OUsHhG6Bgy-57" style="edgeStyle=orthogonalEdgeStyle;rounded=0;orthogonalLoop=1;jettySize=auto;html=1;entryX=0;entryY=0.5;entryDx=0;entryDy=0;" edge="1" parent="1">
          <mxGeometry relative="1" as="geometry">
            <mxPoint x="190" y="654" as="sourcePoint" />
            <mxPoint x="560" y="664" as="targetPoint" />
            <Array as="points">
              <mxPoint x="310" y="664" />
              <mxPoint x="310" y="664" />
            </Array>
          </mxGeometry>
        </mxCell>
        <mxCell id="7pXeF4EEX6OUsHhG6Bgy-5" value="" style="line;strokeWidth=4;direction=south;html=1;perimeter=backbonePerimeter;points=[];outlineConnect=0;fontFamily=Helvetica;fontSize=11;fontColor=default;labelBackgroundColor=default;rotation=-90;" vertex="1" parent="1">
          <mxGeometry x="175" y="578" width="10" height="150" as="geometry" />
        </mxCell>
        <mxCell id="7pXeF4EEX6OUsHhG6Bgy-58" style="edgeStyle=orthogonalEdgeStyle;rounded=0;orthogonalLoop=1;jettySize=auto;html=1;entryX=0;entryY=0.5;entryDx=0;entryDy=0;entryPerimeter=0;" edge="1" parent="1" source="7pXeF4EEX6OUsHhG6Bgy-6" target="7pXeF4EEX6OUsHhG6Bgy-31">
          <mxGeometry relative="1" as="geometry">
            <mxPoint x="930" y="664" as="targetPoint" />
          </mxGeometry>
        </mxCell>
        <mxCell id="7pXeF4EEX6OUsHhG6Bgy-6" value="comprobar actualización de reserva" style="rounded=1;arcSize=10;whiteSpace=wrap;html=1;align=center;fontFamily=Helvetica;fontSize=11;fontColor=default;labelBackgroundColor=default;" vertex="1" parent="1">
          <mxGeometry x="560" y="644" width="100" height="40" as="geometry" />
        </mxCell>
        <mxCell id="7pXeF4EEX6OUsHhG6Bgy-11" style="edgeStyle=orthogonalEdgeStyle;rounded=0;orthogonalLoop=1;jettySize=auto;html=1;" edge="1" parent="1" source="7pXeF4EEX6OUsHhG6Bgy-9">
          <mxGeometry relative="1" as="geometry">
            <mxPoint x="150" y="270" as="targetPoint" />
            <Array as="points">
              <mxPoint x="43" y="743" />
              <mxPoint x="43" y="230" />
              <mxPoint x="150" y="230" />
            </Array>
          </mxGeometry>
        </mxCell>
        <mxCell id="7pXeF4EEX6OUsHhG6Bgy-14" style="edgeStyle=orthogonalEdgeStyle;rounded=0;orthogonalLoop=1;jettySize=auto;html=1;entryX=0;entryY=0.5;entryDx=0;entryDy=0;" edge="1" parent="1" source="7pXeF4EEX6OUsHhG6Bgy-9" target="7pXeF4EEX6OUsHhG6Bgy-13">
          <mxGeometry relative="1" as="geometry" />
        </mxCell>
        <mxCell id="7pXeF4EEX6OUsHhG6Bgy-9" value="" style="html=1;whiteSpace=wrap;aspect=fixed;shape=isoRectangle;fontFamily=Helvetica;fontSize=11;fontColor=default;labelBackgroundColor=default;" vertex="1" parent="1">
          <mxGeometry x="155" y="728" width="50" height="30" as="geometry" />
        </mxCell>
        <mxCell id="7pXeF4EEX6OUsHhG6Bgy-15" style="edgeStyle=orthogonalEdgeStyle;rounded=0;orthogonalLoop=1;jettySize=auto;html=1;entryX=0.5;entryY=0;entryDx=0;entryDy=0;" edge="1" parent="1" source="7pXeF4EEX6OUsHhG6Bgy-13" target="7pXeF4EEX6OUsHhG6Bgy-16">
          <mxGeometry relative="1" as="geometry">
            <mxPoint x="306" y="848" as="targetPoint" />
          </mxGeometry>
        </mxCell>
        <mxCell id="7pXeF4EEX6OUsHhG6Bgy-13" value="cerrar sesion" style="rounded=1;arcSize=10;whiteSpace=wrap;html=1;align=center;fontFamily=Helvetica;fontSize=11;fontColor=default;labelBackgroundColor=default;" vertex="1" parent="1">
          <mxGeometry x="291" y="723" width="100" height="40" as="geometry" />
        </mxCell>
        <mxCell id="7pXeF4EEX6OUsHhG6Bgy-16" value="" style="ellipse;html=1;shape=endState;fillColor=#000000;strokeColor=default;" vertex="1" parent="1">
          <mxGeometry x="326" y="795" width="30" height="30" as="geometry" />
        </mxCell>
        <mxCell id="7pXeF4EEX6OUsHhG6Bgy-18" value="[Otra actualización]" style="text;html=1;align=center;verticalAlign=middle;resizable=0;points=[];autosize=1;strokeColor=none;fillColor=none;" vertex="1" parent="1">
          <mxGeometry x="40" y="713" width="130" height="30" as="geometry" />
        </mxCell>
        <mxCell id="7pXeF4EEX6OUsHhG6Bgy-19" value="" style="line;strokeWidth=4;direction=south;html=1;perimeter=backbonePerimeter;points=[];outlineConnect=0;fontFamily=Helvetica;fontSize=11;fontColor=default;labelBackgroundColor=default;" vertex="1" parent="1">
          <mxGeometry x="850" y="8" width="10" height="802" as="geometry" />
        </mxCell>
        <mxCell id="7pXeF4EEX6OUsHhG6Bgy-20" value="&lt;font style=&quot;font-size: 15px;&quot;&gt;BD&lt;/font&gt;" style="rounded=0;whiteSpace=wrap;html=1;fontFamily=Helvetica;fontSize=11;fontColor=default;labelBackgroundColor=default;" vertex="1" parent="1">
          <mxGeometry x="970" y="18" width="120" height="60" as="geometry" />
        </mxCell>
        <mxCell id="7pXeF4EEX6OUsHhG6Bgy-23" style="edgeStyle=orthogonalEdgeStyle;rounded=0;orthogonalLoop=1;jettySize=auto;html=1;entryX=0;entryY=0.5;entryDx=0;entryDy=0;" edge="1" parent="1" source="7pXeF4EEX6OUsHhG6Bgy-21" target="wWT4ilZx3VzIWegS0zs--113">
          <mxGeometry relative="1" as="geometry" />
        </mxCell>
        <mxCell id="7pXeF4EEX6OUsHhG6Bgy-21" value="comprobar reserva a crear" style="rounded=1;arcSize=10;whiteSpace=wrap;html=1;align=center;fontFamily=Helvetica;fontSize=11;fontColor=default;labelBackgroundColor=default;" vertex="1" parent="1">
          <mxGeometry x="570" y="332" width="100" height="40" as="geometry" />
        </mxCell>
        <mxCell id="7pXeF4EEX6OUsHhG6Bgy-24" value="comprobar usuario existe" style="rounded=1;arcSize=10;whiteSpace=wrap;html=1;align=center;fontFamily=Helvetica;fontSize=11;fontColor=default;labelBackgroundColor=default;" vertex="1" parent="1">
          <mxGeometry x="949" y="188" width="100" height="40" as="geometry" />
        </mxCell>
        <mxCell id="7pXeF4EEX6OUsHhG6Bgy-27" style="edgeStyle=orthogonalEdgeStyle;rounded=0;orthogonalLoop=1;jettySize=auto;html=1;entryX=0.502;entryY=0.038;entryDx=0;entryDy=0;entryPerimeter=0;" edge="1" parent="1" source="7pXeF4EEX6OUsHhG6Bgy-24" target="wWT4ilZx3VzIWegS0zs--101">
          <mxGeometry relative="1" as="geometry" />
        </mxCell>
        <mxCell id="7pXeF4EEX6OUsHhG6Bgy-28" value="comprobar reserva existe" style="rounded=1;arcSize=10;whiteSpace=wrap;html=1;align=center;fontFamily=Helvetica;fontSize=11;fontColor=default;labelBackgroundColor=default;" vertex="1" parent="1">
          <mxGeometry x="940" y="408" width="100" height="40" as="geometry" />
        </mxCell>
        <mxCell id="7pXeF4EEX6OUsHhG6Bgy-30" style="edgeStyle=orthogonalEdgeStyle;rounded=0;orthogonalLoop=1;jettySize=auto;html=1;entryX=0.487;entryY=0.027;entryDx=0;entryDy=0;entryPerimeter=0;" edge="1" parent="1" source="7pXeF4EEX6OUsHhG6Bgy-28" target="wWT4ilZx3VzIWegS0zs--118">
          <mxGeometry relative="1" as="geometry" />
        </mxCell>
        <mxCell id="7pXeF4EEX6OUsHhG6Bgy-31" value="actualiza la reserva" style="rounded=1;arcSize=10;whiteSpace=wrap;html=1;align=center;fontFamily=Helvetica;fontSize=11;fontColor=default;labelBackgroundColor=default;" vertex="1" parent="1">
          <mxGeometry x="940" y="644" width="100" height="40" as="geometry" />
        </mxCell>
        <mxCell id="7pXeF4EEX6OUsHhG6Bgy-38" value="[acabar]" style="text;html=1;align=center;verticalAlign=middle;resizable=0;points=[];autosize=1;strokeColor=none;fillColor=none;" vertex="1" parent="1">
          <mxGeometry x="202" y="721" width="70" height="30" as="geometry" />
        </mxCell>
        <mxCell id="7pXeF4EEX6OUsHhG6Bgy-44" style="edgeStyle=orthogonalEdgeStyle;rounded=0;orthogonalLoop=1;jettySize=auto;html=1;" edge="1" parent="1" source="7pXeF4EEX6OUsHhG6Bgy-42">
          <mxGeometry relative="1" as="geometry">
            <mxPoint x="230" y="270" as="targetPoint" />
            <Array as="points">
              <mxPoint x="1115" y="290" />
              <mxPoint x="260" y="290" />
              <mxPoint x="260" y="250" />
              <mxPoint x="230" y="250" />
            </Array>
          </mxGeometry>
        </mxCell>
        <mxCell id="7pXeF4EEX6OUsHhG6Bgy-46" style="edgeStyle=orthogonalEdgeStyle;rounded=0;orthogonalLoop=1;jettySize=auto;html=1;entryX=0.5;entryY=0;entryDx=0;entryDy=0;" edge="1" parent="1" source="7pXeF4EEX6OUsHhG6Bgy-42" target="7pXeF4EEX6OUsHhG6Bgy-49">
          <mxGeometry relative="1" as="geometry">
            <mxPoint x="1115" y="410" as="targetPoint" />
          </mxGeometry>
        </mxCell>
        <mxCell id="7pXeF4EEX6OUsHhG6Bgy-42" value="" style="html=1;whiteSpace=wrap;aspect=fixed;shape=isoRectangle;fontFamily=Helvetica;fontSize=11;fontColor=default;labelBackgroundColor=default;" vertex="1" parent="1">
          <mxGeometry x="1090" y="338" width="50" height="30" as="geometry" />
        </mxCell>
        <mxCell id="7pXeF4EEX6OUsHhG6Bgy-43" style="edgeStyle=orthogonalEdgeStyle;rounded=0;orthogonalLoop=1;jettySize=auto;html=1;entryX=0.023;entryY=0.459;entryDx=0;entryDy=0;entryPerimeter=0;" edge="1" parent="1" source="wWT4ilZx3VzIWegS0zs--113" target="7pXeF4EEX6OUsHhG6Bgy-42">
          <mxGeometry relative="1" as="geometry" />
        </mxCell>
        <mxCell id="7pXeF4EEX6OUsHhG6Bgy-45" value="[Volver a opciones]" style="text;html=1;align=center;verticalAlign=middle;resizable=0;points=[];autosize=1;strokeColor=none;fillColor=none;fontFamily=Helvetica;fontSize=11;fontColor=default;labelBackgroundColor=default;" vertex="1" parent="1">
          <mxGeometry x="995" y="288" width="120" height="30" as="geometry" />
        </mxCell>
        <mxCell id="7pXeF4EEX6OUsHhG6Bgy-48" style="edgeStyle=orthogonalEdgeStyle;rounded=0;orthogonalLoop=1;jettySize=auto;html=1;entryX=0.5;entryY=0;entryDx=0;entryDy=0;" edge="1" parent="1" source="7pXeF4EEX6OUsHhG6Bgy-49" target="7pXeF4EEX6OUsHhG6Bgy-50">
          <mxGeometry relative="1" as="geometry">
            <mxPoint x="1105" y="573" as="targetPoint" />
          </mxGeometry>
        </mxCell>
        <mxCell id="7pXeF4EEX6OUsHhG6Bgy-49" value="cerrar sesion" style="rounded=1;arcSize=10;whiteSpace=wrap;html=1;align=center;fontFamily=Helvetica;fontSize=11;fontColor=default;labelBackgroundColor=default;" vertex="1" parent="1">
          <mxGeometry x="1065" y="448" width="100" height="40" as="geometry" />
        </mxCell>
        <mxCell id="7pXeF4EEX6OUsHhG6Bgy-50" value="" style="ellipse;html=1;shape=endState;fillColor=#000000;strokeColor=default;" vertex="1" parent="1">
          <mxGeometry x="1100" y="520" width="30" height="30" as="geometry" />
        </mxCell>
        <mxCell id="7pXeF4EEX6OUsHhG6Bgy-53" value="[acabar]" style="text;html=1;align=center;verticalAlign=middle;resizable=0;points=[];autosize=1;strokeColor=none;fillColor=none;" vertex="1" parent="1">
          <mxGeometry x="1055" y="393" width="70" height="30" as="geometry" />
        </mxCell>
        <mxCell id="7pXeF4EEX6OUsHhG6Bgy-59" style="edgeStyle=orthogonalEdgeStyle;rounded=0;orthogonalLoop=1;jettySize=auto;html=1;entryX=0.524;entryY=0.093;entryDx=0;entryDy=0;entryPerimeter=0;" edge="1" parent="1" source="7pXeF4EEX6OUsHhG6Bgy-31" target="7pXeF4EEX6OUsHhG6Bgy-9">
          <mxGeometry relative="1" as="geometry">
            <Array as="points">
              <mxPoint x="990" y="700" />
              <mxPoint x="181" y="700" />
            </Array>
          </mxGeometry>
        </mxCell>
      </root>
    </mxGraphModel>
  </diagram>
</mxfile>
